<?xml version="1.0" encoding="UTF-8"?>
<svg id="Layer_2" data-name="Layer 2" xmlns="http://www.w3.org/2000/svg" viewBox="0 0 90.26 102.77">
  <defs>
    <style>
      .cls-1 {
        fill: #506b4d;
      }

      .cls-2 {
        fill: #414428;
      }

      .cls-3 {
        fill: #bcb68a;
      }

      .cls-4 {
        fill: #db4c3c;
      }

      .cls-5 {
        fill: #76764f;
      }

      .cls-6 {
        fill: #565938;
      }

      .cls-7 {
        fill: #9e9f70;
      }

      .cls-8 {
        fill: #4a4d2f;
      }

      .cls-9 {
        fill: #5e613e;
      }

      .cls-10 {
        fill: #4c4f31;
      }

      .cls-11 {
        fill: #393a24;
      }

      .cls-12 {
        fill: #4f5233;
      }

      .cls-13 {
        fill: #818157;
      }

      .cls-14 {
        fill: #3e4126;
      }
    </style>
  </defs>
  <g id="Layer_1-2" data-name="Layer 1">
    <g>
      <path class="cls-6" d="M12.95,43.21c-.06-.06-.13-.11-.19-.16,6.96,5.17,15.15,11.68,25.44,14.3,1.05.43,1.15.79,1.15.79.45-7.16-2.98-14.25-2.98-14.25.18,1.62-.15,3.68-.15,3.68,0,0-.41-4.17-1.71-5.46.68,1.76.41,6.06.41,6.06,0,0-.92-6.9-3.11-9.21,1.43,3.27,1.46,7.28,1.46,7.28,0,0-.65-3.53-2.74-6.57.55,1.08,2.31,6.77,1.48,11.87-.19-3.62-1.45-9.16-4.75-13.63,2.82,4.43,2.69,10.12,2.69,10.12,0,0-1.99-6.35-3.5-7.49,2.36,4.52,2.2,10.75.28,11.15-1.18-3.76-3.39-7.6-3.39-7.6,0,0,.93,3.22.19,4.3-.91-3.02-3.52-9.49-3.52-9.49,0,0,1.06,3.81.88,7.97-.54-3.56-1.41-6.71-3.23-10.84,1.27,3.52,1.55,8.65.94,9.26-1.06-1.99-5.37-8.3-5.76-9.01.26.52,1.45,3.07,3.18,7.13-1.69-2.75-7.41-8.89-7.41-8.89,0,0,2.96,3.93,5.1,7.2-.52-.26-4.16-2.42-7.52-5.33.4.45.84.94,1.3,1.47,1.45,1.63,3.23,3.55,5.48,5.38Z"/>
      <g>
        <path class="cls-11" d="M54.92,71.51c-.34.02-.68.04-1.02.07.02.01.04.03.06.04.32-.04.64-.08.96-.11Z"/>
        <path class="cls-11" d="M69.14,73.16c-.93.09-2.3-.13-4.03-.42-2.77-.46-6.56-1.08-10.49-.64.15.12.22.19.22.19.01.11.02.23.03.34,3.8-.22,7.52.31,10.51.74,2.11.3,3.73.53,4.82.42.02-.05.04-.1.06-.15-.36-.15-.73-.31-1.12-.48Z"/>
        <path class="cls-11" d="M66.91,72.46c.21.03.41.06.61.08-.19-.02-.4-.05-.61-.08Z"/>
        <path class="cls-11" d="M58.56,59.04c.24.39.5.8.78,1.24-.25-.41-.48-.81-.7-1.2-.03-.01-.05-.03-.07-.04Z"/>
        <path class="cls-10" d="M70.06,71.96c-4.44-3.07-8.15-8.43-10.47-12.34-.14-.08-.48-.26-.96-.53.22.38.45.78.7,1.2,2.03,3.38,5.04,7.71,8.64,10.77.74.33,1.44.63,2.08.9Z"/>
        <path class="cls-10" d="M54.62,72.1c3.93-.44,7.72.18,10.49.64,1.73.29,3.1.51,4.03.42.39.17.76.33,1.12.48.07-.17.14-.35.22-.52-7.48-3.12-22.4-10.84-31.1-15.41,0,.16,0,.32-.02.48,0,0-.07.02-.19.04.66.35,1.36.71,2.08,1.09,7.88,4.13,19.26,9.97,26.54,13.24-.09,0-.18-.02-.28-.03-.19-.02-.4-.05-.61-.08-.53-.08-1.11-.17-1.71-.27-2.72-.45-6.41-1.06-10.28-.68-.32.03-.64.07-.96.11.29.2.51.37.66.49Z"/>
        <path class="cls-13" d="M65.71,34.04c0-.11,0-.23.01-.35-.03.12-.06.23-.08.3.03,0,.05.03.07.05Z"/>
        <path class="cls-13" d="M62.52,14.68s-.02-.05-.03-.07c0,.03.01.07.01.09,0,0,0-.01.02-.02Z"/>
        <path class="cls-13" d="M65.74,30.03c0-.16,0-.32-.02-.49-.03.27-.06.45-.06.45l.07.03Z"/>
        <path class="cls-13" d="M60.23,9.95c-.04-.06-.07-.13-.1-.19.03.08.06.16.08.23,0-.01.02-.02.03-.04Z"/>
        <path class="cls-13" d="M57.68,5.84c-1.31-1.91-2.82-3.86-4.57-5.84,0,0,3.28,4.39,4.58,5.88,0-.01,0-.02,0-.03Z"/>
        <path class="cls-13" d="M48.8,12.31c-.27.34-.54.68-.83,1.03-.04.12-.08.21-.08.21,0,0,.38-.51.91-1.24Z"/>
        <path class="cls-13" d="M64.38,20.18c-.02-.09-.05-.18-.07-.27,0,.12,0,.23,0,.34.03-.02.05-.04.07-.06Z"/>
        <path class="cls-13" d="M41.15,28.57c1.14,4.16,2.94,8.21,6.35,12.3-2.61-5.17-4-9.41-4.03-11.19.85,1.4,4.76,6.76,5.66,7.83-2.97-5.3-3.42-9.88-2.81-12.85.37.29.66,1.14.85,1.81-.13-.86-.18-2.3.43-4.21.8.22,1.82,4.54,2.38,6.37-.55-3.74.34-6.75.36-9.05,1.16,2.05,1.01,4.72,1.01,4.72,0,0,1.38-4.74,1.43-8.05.79.83,1.19,6.83,1.19,6.83,0,0,1.8-8.25,1.96-11.96-.01-.21-.02-.42-.03-.63-.16-1.38-.38-2.7-.68-3.96,2.38,4.88,2.1,13.69,2.1,13.69,0,0,1.36-3.93,2.25-6.94.41,3-.13,9.54-1.55,12.9.97-1.35,3.14-5.66,4.29-7.89.06,2.27-.82,6.44-1.98,9.64-.52,1.42-2.83,5.33-3.65,7.84,1.56-2.47,4.56-7.16,5.54-10.06-.16,2.78-1.2,5.61-2.37,8,.91-.94,1.82-2.09,2.47-3.65.35,1.17-1.07,5.82-2.52,12.55.3-.64,4-9.16,3.74-8.43-.26.72-.98,4.95-2.26,10.33.51-.84,3.3-8.53,3.3-8.53,0,0-.69,7.91-2.24,11.43-.28.64-.57,1.45-.84,2.32,1.57-4.15,3.51-8.79,4.03-12.82-.3,1.4-.72,2.86-.85,3.32.4-2.78.33-4.64.57-6.25-.65,1.6-1.4,2.55-1.4,2.55,0,0,1.43-3.56,1.8-5.33-.52,1.44-1.23,2.27-1.23,2.27,0,0,.78-3.46.93-4.42-1.26,3.28-2.72,4.86-2.72,4.86l2.68-6.64s.1-.36.25-.48c-.14-1.42-.35-2.91-.67-4.46-.26,1.89-.84,4.46-2.14,6.73,1.43-3.56,1.35-6.52,1.38-7.73-.29,1.73-1.6,3.84-1.6,3.84,0,0,1.2-5.55.67-8.39-.02.81-.25,1.81-.25,1.81,0,0-.69-2.97-.68-3.17-.7,3.62-1.92,5.49-1.92,5.49,0,0,1.5-6.19.57-9.45,0,1.9-.52,2.94-.52,2.94,0,0,0-3.19-.11-3.64-.08,1.53-.37,1.77-.37,1.77,0,0-.35-2.19-.47-3.19.17,2.79-1.17,5.66-1.17,5.66,0,0,.73-4.63-.2-7.89.08,1.46-.34,2.26-.34,2.26,0,0-.35-2.23-1.03-3.71.59,2.32.43,3.49.43,3.49,0,0-2.25-6.8-4-9.14.42,2.99,0,5.26-.98,7.33.06.71-.06,1.62-.18,2.29-.22,1.23,0,4.13,0,4.13,0,0-.63-1.6-.83-2.86-.34,3.21-.03,7.35-.03,7.35,0,0-1.43-5.42-1.04-6.7-.97,2.85-.41,4.68-.41,4.68,0,0-1.12-2.17-.89-3.18-1.17,2.84-.03,8.69.33,10.32-1.6-3.84-2.19-7.26-1.8-8.34-1.14,1.83-1.12,4.22-1.12,4.22,0,0-.72-1.76-.08-2.95-1.34,1.82-4.14,6.73-1.86,12.25-1.28-2.1-1.96-5.27-1.69-6.39-1.04,2.48-.55,5.45-.55,5.45,0,0-.86-2.69-.72-3.46.01-.11.03-.23.04-.35-.53,1.43-.93,2.93-1.2,4.46.11.89.73,4.49,3.99,9.43-2.65-5.25-2.87-7.84-2.95-9.1Z"/>
        <path class="cls-9" d="M50.05,52.73c-2.81-2.29-5.77-5.23-6.96-8.13,2.36,2.12,3.29,2.19,3.29,2.19,0,0-3.22-3.68-4.11-8.16,1.94,3.29,4.19,5.13,4.19,5.13,0,0-2.34-3.3-2.7-4.92,1.6,2.35,4.32,4.77,5.9,6.42-1.17-1.45-1.88-3.81-1.88-3.81,0,0,3.07,2.07,5.11,4.2-2.35-3.86-5.62-8.06-7.03-11.09,3.22,4.61,6.14,7.27,7.35,9.74-4.9-10.48-5.75-14.87-5.75-14.87,0,0,4.58,12.03,6.14,12.65,0-.03,0-.07,0-.1-1.41-3.2-2.92-13.28-2.56-15.15.45,5.64,1.99,11.52,2.71,12.38,0-.05,0-.1.01-.15.02-.14.03-.29.05-.43-1.07-5.96-1.38-13.75-1.47-16.13.51,1.9.97,10.17,1.83,12.95.98-8.67,2.07-18.18,1.78-24.32-.16,3.71-1.96,11.96-1.96,11.96,0,0-.41-6-1.19-6.83-.05,3.32-1.43,8.05-1.43,8.05,0,0,.15-2.67-1.01-4.72-.02,2.3-.91,5.31-.36,9.05-.56-1.83-1.58-6.15-2.38-6.37-.61,1.91-.56,3.35-.43,4.21-.19-.67-.48-1.52-.85-1.81-.6,2.98-.16,7.56,2.81,12.85-.9-1.08-4.8-6.44-5.66-7.83.03,1.78,1.42,6.02,4.03,11.19-3.41-4.09-5.2-8.15-6.35-12.3.09,1.26.3,3.85,2.95,9.1-3.26-4.94-3.88-8.54-3.99-9.43-.02-.14-.02-.22-.02-.22,0,0-.05-.32-.49-.42-.44,1.2.09,5.1.09,5.1,0,0-.25-.33-.67-.58-.62,1.24,1.38,5.94,1.38,5.94,0,0-.13-.39-.54-.4.21,2.15,2.26,5.43,2.26,5.43-.31-.39-1.06-.84-1.06-.84,3.32,9.09,16.66,16.3,16.66,16.3,0,0,0,0,0,0-1.91-1.16-4.92-3.18-7.68-5.81Z"/>
        <path class="cls-9" d="M55.88,10.5c-.08-1.12-.21-2.12-.4-2.96-.09-.33-.18-.66-.28-1,.3,1.25.52,2.58.68,3.96Z"/>
        <path class="cls-9" d="M64.57,35.99s-2.79,7.69-3.3,8.53c1.28-5.39,1.99-9.61,2.26-10.33.26-.72-3.44,7.8-3.74,8.43,1.45-6.73,2.86-11.38,2.52-12.55-.65,1.56-1.56,2.71-2.47,3.65,1.17-2.39,2.21-5.22,2.37-8-.99,2.9-3.98,7.59-5.54,10.06.82-2.52,3.13-6.42,3.65-7.84,1.16-3.2,2.04-7.37,1.98-9.64-1.15,2.23-3.33,6.54-4.29,7.89,1.42-3.36,1.96-9.9,1.55-12.9-.89,3.01-2.25,6.94-2.25,6.94,0,0,.27-8.81-2.1-13.69.11.3.2.64.28,1,1.52,5.74,1.1,11.03,1.05,12.75-.03,1-.46,5.79-.87,10.43,1.17-4.46,2.63-10.36,2.76-12.65,0-.28-.02-.55-.04-.8.05.16.06.44.04.8.06,4.32-2.24,12.52-2.69,13.98,2.17-2.48,5.88-11.23,6.19-12.31-1.32,5.14-5.33,11.94-5.92,13.81,1.79-2.02,3.14-4.06,3.88-5.34-.39.94-1.23,2.55-4.52,7.57-.09.24-.15.48-.22.72-.12,1.39-.21,2.51-.26,3.12-.05.73-.05,1.93.03,3.41,1.13-1.75,3.19-6.53,3.62-7.48-.36,1.63-2.71,7.59-3.42,9.9.02.16.04.32.06.48,2.09-2.81,3.59-5.79,4.33-8.31-.95,4.11-3.16,9.03-3.94,10.99.02.1.04.21.06.31,1.3-1.63,2.11-3.16,2.11-3.16,0,0-1.1,3.26-1.7,5.12.03.13.05.25.08.38,2.12-2.26,2.86-5.12,4.27-7.8-.62,2.18-2.38,7.18-3.68,9.68.03.07.05.14.08.22,1.08-.82,2.83-4.19,3.76-5.85-1.19,2.98-2.07,5.45-2.13,7.69.8-1.02,2.19-3.13,2.75-5.58-.2,1.97-1.44,5.08-1.75,7.58-.04.36-.04.71-.01,1.03.35-1.72,1.16-5.55,2.08-8.5.27-.88.56-1.68.84-2.32,1.55-3.52,2.24-11.43,2.24-11.43Z"/>
        <path class="cls-8" d="M59.42,57.21c.3-2.5,1.54-5.61,1.75-7.58-.56,2.45-1.95,4.56-2.75,5.58-.04,1.57.31,3.02,1.26,4.46,0,0-.2-.6-.27-1.41,0,0,0-.01,0-.02-.03-.32-.03-.67.01-1.03Z"/>
        <path class="cls-3" d="M56.68,5.65c.69,1.47,1.03,3.71,1.03,3.71,0,0,.43-.8.34-2.26.92,3.26.2,7.89.2,7.89,0,0,1.34-2.87,1.17-5.66.12,1.01.47,3.19.47,3.19,0,0,.29-.23.37-1.77.11.45.11,3.64.11,3.64,0,0,.51-1.04.52-2.94.92,3.26-.57,9.45-.57,9.45,0,0,1.22-1.87,1.92-5.49,0,.2.68,3.17.68,3.17,0,0,.23-1.01.25-1.81.53,2.85-.67,8.39-.67,8.39,0,0,1.31-2.11,1.6-3.84-.03,1.21.05,4.17-1.38,7.73,1.3-2.27,1.88-4.84,2.14-6.73.22-1.62.21-2.75.21-2.75,0,0-.26.22-.71.6-.03.02-.05.04-.07.06,0-.1,0-.22,0-.34-.06-2.06-1.33-5.93-1.33-5.93,0,0,0,0-.45.69,0,0,0,.01-.02.02,0-.03,0-.06-.01-.09-.14-1.12-1.83-5.34-1.83-5.34,0,0,0,0-.44.68,0,.01-.02.02-.03.04-.02-.07-.05-.15-.08-.23-.54-1.46-2.38-4.81-2.38-4.81,0,0-.22-.68-.07.89,0,.01,0,.02,0,.03-1.3-1.49-4.58-5.88-4.58-5.88,1.76,2.34,4,9.14,4,9.14,0,0,.15-1.17-.43-3.49Z"/>
        <path class="cls-3" d="M41.99,27.58s-.49-2.97.55-5.45c-.27,1.13.41,4.3,1.69,6.39-2.28-5.52.52-10.42,1.86-12.25-.64,1.2.08,2.95.08,2.95,0,0-.02-2.39,1.12-4.22-.39,1.08.2,4.49,1.8,8.34-.36-1.63-1.5-7.48-.33-10.32-.23,1.01.89,3.18.89,3.18,0,0-.56-1.83.41-4.68-.4,1.28,1.04,6.7,1.04,6.7,0,0-.31-4.14.03-7.35.2,1.26.83,2.86.83,2.86,0,0-.22-2.89,0-4.13.12-.67.24-1.58.18-2.29-.05-.59-.22-1.04-.63-1.09.04,1.32-.76,3.1-1.22,4-.52.73-1.05,1.47-1.48,2.07-.53.73-.91,1.24-.91,1.24,0,0,.04-.09.08-.21.08-.25.17-.67,0-.92-.45.31-2.48,3.66-2.48,3.66l-.27-.37c-.71.83-2.05,4.15-2.05,4.15l-.23-.49c-.22-.46-1.34,2.57-1.62,4.42-.02.12-.03.24-.04.35-.14.76.72,3.46.72,3.46Z"/>
        <path class="cls-12" d="M47.77,41.45s.71,2.36,1.88,3.81c-1.57-1.66-4.3-4.08-5.9-6.42.36,1.63,2.7,4.92,2.7,4.92,0,0-2.26-1.84-4.19-5.13.89,4.47,4.11,8.16,4.11,8.16,0,0-.93-.07-3.29-2.19,1.19,2.9,4.15,5.84,6.96,8.13-1.53-1.46-2.98-3.1-4.12-4.9,2.78,2.82,8.12,7.12,10.56,8.37-7.46-5.43-9.82-9.38-9.57-9.1.86.98,6.33,5.64,8.68,6.4-5-3.55-7.25-7.61-8.02-8.98,1.7,2.57,5.93,6.26,7.38,6.9-1.43-2.52-3.36-5.71-4.69-6.96,1.88,1.35,3.51,3.04,3.84,3.39-.37-.72-.78-1.45-1.24-2.2-2.05-2.13-5.11-4.2-5.11-4.2Z"/>
        <path class="cls-12" d="M56.66,53.24c.02.06.04.12.06.18.02-.02.05-.04.07-.06-.03-.07-.05-.14-.08-.22-.02.03-.03.06-.05.09Z"/>
        <path class="cls-2" d="M59.6,59.62c.05.03.08.04.08.04-.94-1.43-1.3-2.89-1.26-4.46.06-2.24.94-4.71,2.13-7.69-.93,1.65-2.68,5.02-3.76,5.85-.02.02-.05.04-.07.06-.02-.06-.04-.12-.06-.18.02-.03.03-.06.05-.09,1.29-2.5,3.05-7.49,3.68-9.68-1.41,2.69-2.14,5.54-4.27,7.8-.03-.13-.06-.25-.08-.38.6-1.86,1.7-5.12,1.7-5.12,0,0-.8,1.53-2.11,3.16-.02-.1-.04-.21-.06-.31.78-1.97,3-6.88,3.94-10.99-.74,2.51-2.24,5.5-4.33,8.31-.02-.16-.04-.32-.06-.48.71-2.31,3.06-8.27,3.42-9.9-.43.95-2.49,5.74-3.62,7.48-.08-1.48-.08-2.68-.03-3.41.04-.62.13-1.73.26-3.12.07-.24.13-.48.22-.72,3.29-5.03,4.12-6.64,4.52-7.57-.73,1.27-2.09,3.32-3.88,5.34.59-1.87,4.6-8.67,5.92-13.81-.31,1.08-4.02,9.83-6.19,12.31.44-1.46,2.74-9.65,2.69-13.98-.13,2.3-1.59,8.19-2.76,12.65.42-4.63.85-9.43.87-10.43.05-1.72.47-7.01-1.05-12.75.19.84.32,1.83.4,2.96.01.2.02.42.03.63.3,6.14-.79,15.64-1.78,24.32-.86-2.77-1.32-11.04-1.83-12.95.09,2.39.4,10.17,1.47,16.13-.02.14-.03.29-.05.43,0,.05,0,.1-.01.15-.72-.86-2.26-6.74-2.71-12.38-.36,1.87,1.15,11.96,2.56,15.15,0,.03,0,.07,0,.1-1.55-.62-6.14-12.65-6.14-12.65,0,0,.85,4.39,5.75,14.87-1.2-2.47-4.12-5.12-7.35-9.74,1.41,3.03,4.68,7.22,7.03,11.09.46.75.87,1.49,1.24,2.2-.33-.35-1.96-2.04-3.84-3.39,1.32,1.25,3.26,4.44,4.69,6.96-1.45-.64-5.69-4.33-7.38-6.9.77,1.37,3.02,5.43,8.02,8.98-2.35-.76-7.82-5.42-8.68-6.4-.25-.29,2.11,3.67,9.57,9.1-2.45-1.25-7.78-5.54-10.56-8.37,1.14,1.8,2.59,3.44,4.12,4.9,2.76,2.64,5.77,4.65,7.68,5.81.31.19.59.36.84.5.03.01.05.03.07.04.48.28.81.46.96.53ZM59.23,59.14c-2.17-2.08-4.54-8.65-5.1-13.68-.55-5.03,1.03-12.75,1.03-12.75,0,0-1.26,6.28-.51,13.21.75,6.94,4.58,13.23,4.58,13.23Z"/>
        <path class="cls-2" d="M58.38,17.26c.03.25.04.51.04.8.02-.36,0-.63-.04-.8Z"/>
        <path class="cls-2" d="M55.48,7.54c-.08-.36-.17-.7-.28-1,.1.33.19.67.28,1Z"/>
        <path class="cls-9" d="M54.65,45.92c-.75-6.94.51-13.21.51-13.21,0,0-1.58,7.72-1.03,12.75.55,5.03,2.93,11.6,5.1,13.68,0,0-3.84-6.29-4.58-13.23Z"/>
        <path class="cls-3" d="M65.29,27.27l-2.68,6.64s1.46-1.58,2.72-4.86c-.15.97-.93,4.42-.93,4.42,0,0,.71-.83,1.23-2.27-.37,1.77-1.8,5.33-1.8,5.33,0,0,.75-.95,1.4-2.55-.24,1.61-.17,3.47-.57,6.25.13-.45.55-1.92.85-3.32.3-1.36.48-2.64.19-2.88-.02-.02-.04-.04-.07-.05.02-.07.05-.17.08-.3.23-.97.58-3.41.58-3.41l-.56-.27-.07-.03s.03-.18.06-.45c.1-.8.27-2.42.06-2.7-.09-.12-.17-.11-.25-.05-.15.12-.25.48-.25.48Z"/>
        <path class="cls-13" d="M15.73,93.17c.03-.08.06-.16.06-.21-.01.07-.04.14-.06.21Z"/>
        <path class="cls-13" d="M25.88,72.56c-.31.18-.66.51-1.02.92.59-.57,1.02-.92,1.02-.92Z"/>
        <path class="cls-13" d="M17.99,96.16c1.09-1.18,5.01-5.47,6.61-7.36-2.9,2.04-4.55,4.04-4.55,4.04,0,0,3.37-5.35,5.62-6.9-2.87,1.32-4.51,3.11-4.51,3.11,0,0,1-3.59,7.42-7.55-.12-.05-.24-.08-.37-.11-.17.07-.33.14-.46.22.07-.08.15-.17.24-.25-1.94-.23-4.96,1.22-4.96,1.22,0,0,2.63-2.33,6-3.62.74-.34,1.57-.68,2.4-.92-1.66-.49-4.18.79-4.18.79,0,0,1.99-2.11,6.42-2.69.37-.11.98-.26,1.65-.37-1.15-1.12-7.21-.03-9.14,1.35,2.78-3.4,6.9-3.99,12.66-2.34.17.03.32.06.46.09-.17-.16-.34-.3-.51-.43,0,0,0,0-.01,0,0,0,0,0,.01,0-1.58-1.18-3.38-1.35-3.38-1.35,0,0,3.43-1.09,5.47-.26-.57-1.07-4.15-1.13-4.15-1.13,0,0,5-.28,6.5.82-1.86-2.48-8.48-3.1-11.01-2.28,1.26-2.54,8.94-2.38,11.6-1.53-2.33-1.25-4.5-1.56-4.5-1.56,0,0,5.18.24,9.37,1.79,2.23.83,3.83,1.72,4.83,2.37-7.05-4.88-14.16-5.1-14.16-5.1l.59.65c-2.65-1.16-7.17-.02-7.17-.02l.71.45c-1.54-.28-4.73,1.23-4.73,1.23l.91.46c-.78.05-1.76.64-2.62,1.3,1.43-.86,3.05-1.22,4.45-1.11-3.42.67-5.04,2.6-5.04,2.6,0,0,1.78-1.02,4.34-.97-3.07.48-6.13,3.73-6.13,3.73,0,0,3.38-2.68,8.6-1.81-5.58-.54-11.28,4.94-11.28,4.94,0,0,.74-.38,2.11-.73-.35.2-.94.9-1.56,1.77.77-.71,1.64-1.35,2.61-1.88.31-.22.61-.41.89-.55-1.34,1.68-4.22,5.02-5.44,7.03.76-.9,2.99-2.23,2.99-2.23,0,0-3.7,3.57-4.17,4.69.11-.2,2.91-2.15,5.34-3.07-2.88,1.63-5.39,4.11-6.96,6.74-.11.2,2.12-.94,2.12-.94,0,0-2.16,1.66-3.17,3.28.23-.4,2.57-1.54,2.57-1.54,0,0-3.05,2.97-3.74,4.5.87-.89,3.96-2.51,3.96-2.51,0,0-4.07,7.08-9.31,7.98,0,0,2.06-.76,3.2-2.08-2.13,1.89-5.72,2.91-5.71,3.83,0,0,2.71-.49,6.14-2.55,1.29-.9,2.67-2,4.1-3.22Z"/>
        <path class="cls-6" d="M39.33,67.17s2.17.31,4.5,1.56c-2.66-.85-10.34-1-11.6,1.53,2.53-.82,9.15-.19,11.01,2.28-1.51-1.11-6.5-.82-6.5-.82,0,0,3.58.06,4.15,1.13-2.04-.82-5.47.26-5.47.26,0,0,1.79.17,3.38,1.35.69-.05,2.95.31,3.8.45.04-.02.08-.03.11-.05-.67-.34-2.88-1.37-4.71-1.37,1.05-.26,6.12.08,6.12.08,0,0-1.21-.78-2.56-.85,1.28-.12,3.44.09,4.86.33-1.14-.89-3.7-1.73-3.7-1.73,0,0,3.88.34,5.1.91-1.2-.99-5.19-2.22-7.89-2.24,1.76.08,5.64-.67,9.19,1.16-.89-.98-3.66-1.73-3.66-1.73,0,0,1.26-.36,6.05,1.63,0,0-2.92-2.01-5.09-2.21,4.14.4,8.42,3.44,8.42,3.44,0,0-.08-.07-.22-.19-.15-.12-.36-.28-.66-.49-.02-.01-.04-.03-.06-.04-.11-.08-.24-.16-.37-.25-1.01-.65-2.6-1.55-4.83-2.37-4.19-1.55-9.37-1.79-9.37-1.79Z"/>
        <path class="cls-6" d="M34.36,77.79c-1.22-.58-2.67-.75-2.67-.75,0,0,1.6-.86,5.11-.38-1.43-.48-3.51-.37-3.51-.37,0,0,.14-.05.38-.12-4.44.58-6.42,2.69-6.42,2.69,0,0,2.51-1.28,4.18-.79,1.02-.3,2.05-.45,2.94-.28Z"/>
        <path class="cls-6" d="M38.79,74.46c.18.13.35.27.51.43.43.08.69.15.69.15,0,0-.48-.64-1.21-.58Z"/>
        <path class="cls-6" d="M37.37,75.75c-1.61-1.01-2.85-1.28-5.55-1.3,2.21-.41,5.35.05,7.02.36-5.76-1.65-9.88-1.06-12.66,2.34,1.93-1.38,7.99-2.47,9.14-1.35.68-.11,1.41-.16,2.04-.05Z"/>
        <path class="cls-6" d="M29.04,83.82c-1.26.2-2.96,1.16-4.73,2.22,1-1.41,5.39-4.16,8.07-4.76-1.3-.06-3.09.53-3.09.58.57-.48,1.38-.9,2.15-1.25-1.14.17-2.38.44-3.23.8.13.03.26.06.37.11-6.42,3.96-7.42,7.55-7.42,7.55,0,0,1.64-1.79,4.51-3.11-2.25,1.56-5.62,6.9-5.62,6.9,0,0,1.65-2,4.55-4.04-1.6,1.88-5.53,6.17-6.61,7.36.41-.35.82-.71,1.24-1.08,2.72-2.87,5.89-6.15,8.75-8.97-1.49,1.05-3.22,2.01-4.26,2.8.77-.85,2.5-3.52,5.33-5.1Z"/>
        <path class="cls-6" d="M26.24,80.42c.24-.08,1.36-.77,2.78-1.43-3.37,1.29-6,3.62-6,3.62,0,0,3.02-1.46,4.96-1.22,1.3-1.2,4.37-2.25,4.87-2.42-2.27-.31-3.96.23-6.61,1.46Z"/>
        <path class="cls-14" d="M46.42,68.85c2.17.21,5.09,2.21,5.09,2.21-4.79-1.99-6.05-1.63-6.05-1.63,0,0,2.77.75,3.66,1.73-3.55-1.83-7.43-1.08-9.19-1.16,2.7.02,6.69,1.25,7.89,2.24-1.22-.58-5.1-.91-5.1-.91,0,0,2.56.85,3.7,1.73-1.41-.24-3.58-.45-4.86-.33,1.35.06,2.56.85,2.56.85,0,0-5.07-.34-6.12-.08,1.83,0,4.04,1.03,4.71,1.37,6.68-3.15,11.27-2.69,12.02-2.59.05,0,.09.01.11.02,0,0-4.29-3.04-8.42-3.44Z"/>
        <path class="cls-14" d="M42.59,74.92c-.84-.14-3.11-.5-3.8-.45,0,0,0,0-.01,0,0,0,0,0,.01,0,.72-.06,1.21.58,1.21.58,0,0-.26-.06-.69-.15-.14-.03-.29-.06-.46-.09-1.67-.31-4.81-.77-7.02-.36,2.7.02,3.93.29,5.55,1.3-.63-.11-1.37-.06-2.04.05-.67.1-1.28.26-1.65.37-.24.07-.38.12-.38.12,0,0,2.08-.11,3.51.37-3.51-.48-5.11.38-5.11.38,0,0,1.45.17,2.67.75-.89-.16-1.91-.01-2.94.28-.83.24-1.66.57-2.4.92-1.42.66-2.54,1.35-2.78,1.43,2.65-1.23,4.34-1.77,6.61-1.46-.49.17-3.57,1.22-4.87,2.42-.09.08-.17.17-.24.25.13-.08.29-.15.46-.22.85-.36,2.09-.62,3.23-.8-.78.34-1.58.77-2.15,1.25,0-.05,1.8-.64,3.09-.58-2.68.6-7.06,3.36-8.07,4.76,1.76-1.06,3.47-2.02,4.73-2.22-2.83,1.58-4.56,4.25-5.33,5.1,1.05-.79,2.77-1.75,4.26-2.8.39-.39.78-.77,1.16-1.13-.11.09-.21.18-.32.28,5.08-5.29,9.79-8.46,13.77-10.35Z"/>
        <path class="cls-7" d="M33.28,72.73c-5.22-.87-8.6,1.81-8.6,1.81,0,0,3.06-3.25,6.13-3.73-2.56-.05-4.34.97-4.34.97,0,0,1.61-1.93,5.04-2.6-1.4-.11-3.02.25-4.45,1.11-.82.5-1.59,1.16-2.21,2,.6.41,1.03.26,1.03.26,0,0-.44.35-1.02.92-.97.95-2.37,2.53-2.85,4.2,0,0,5.69-5.48,11.28-4.94Z"/>
        <path class="cls-5" d="M17.45,102.66c-.41.07-.67.11-.67.11.04,0,.3-.04.67-.11Z"/>
        <path class="cls-5" d="M32.12,99.51l.2-.66c-.11.37-.17.56-.2.66Z"/>
        <path class="cls-5" d="M7.75,101.93c2.6.34,4.69.42,6.3.38-1.53.03-3.54-.09-6.3-.38Z"/>
        <path class="cls-5" d="M33.69,98.89c-.92.42-1.59.72-1.59.72,0,0,.65-.27,1.59-.72Z"/>
        <path class="cls-5" d="M14.85,102.28c1.05-.06,1.83-.19,2.31-.32,0,0-.22.34-.38.81l.44-.92c-.63.22-1.38.36-2.37.43Z"/>
        <path class="cls-5" d="M45.19,91.99l-.24-.77c.23,1.05.24.77.24.77Z"/>
        <path class="cls-5" d="M13.89,99.38c1.68-1.01,3.53-2.39,5.33-4.29,0,0,0,0,0,0-.42.37-.83.73-1.24,1.08-1.43,1.22-2.81,2.32-4.1,3.22Z"/>
        <path class="cls-5" d="M54.84,72.29s-.06-.01-.11-.02c.07.01.11.02.11.02Z"/>
        <path class="cls-7" d="M34.04,97.84c2.05-3.07,3.87-7.06,3.87-7.06,0,0-.92,1.31-2.01,2.85.15-.28.24-.44.24-.44,0,0-3.24,4.83-8.52,6.66.58-.7,1.86-2.18,2.75-3.15-1.32,1.08-3.81,2.73-5.55,3.43-.29.34-.59.67-.87.92.63-.25,3.83-1.97,3.83-1.97,0,0-1.67,1.58-3.22,2.27,1.75-.33,6.02-2.9,6.24-3.03.21-.13-2.08,1.5-2.08,1.63,4.02-1.54,6.47-5.1,6.47-5.1,0,0-.27,1.23-2.44,3.28-.08.08-.18.16-.27.24l-.14.48-.2.66-.03.11c.26-.46,1.1-1.15,1.95-1.78Z"/>
        <path class="cls-7" d="M23.46,100.96s-.07.05-.25.14c-.45.7-.53,1.02-.5,1.16.06-.49.75-1.31.75-1.31Z"/>
        <path class="cls-7" d="M26.98,97.85c-.26.23-.58.48-.93.72-.18.25-.65.87-1.18,1.49,1.41-1.47,3.18-3.18,2.11-2.21Z"/>
        <path class="cls-7" d="M22.74,102.31c.05.08.15.06.15.06,0,0,.1-.02.25-.06-.18.02-.32.02-.41,0Z"/>
        <path class="cls-7" d="M31.23,95.87c.19-.29-.24.14-.87.83.44-.36.76-.66.87-.83Z"/>
        <path class="cls-7" d="M17.02,102.66s-.05.03,0,0c0,0,0,0,0,0,.16-.08,1.04-.51,3.02-1.03,1.41-.37,3.21-1.36,4.49-2.14-.75.4-1.52.75-2.13.95,2.69-2.05,5.42-7.02,5.42-7.02,0,0-3.38,3.37-4.98,4.34.23-.51,3.1-6.29,5.84-9.28-1.21,1.04-3.9,2.99-6.18,4.71-2.66,3.29-5.83,5.63-5.83,5.63,0,0,4.87-1.95,6.97-4.76-1.81,3.13-4.83,5.59-7.68,6.49,1.75.29,3.88-.86,5.17-1.63-1.55,1.36-2.29,2.38-3.89,2.93l-.44.92s.26-.04.67-.11c1.41-.25,4.64-.87,5.64-1.5-.66.31-2.34.94-6.07,1.5Z"/>
        <path class="cls-3" d="M21.11,98.93c-1.28.77-3.41,1.92-5.17,1.63,2.85-.91,5.87-3.36,7.68-6.49-2.11,2.81-6.97,4.76-6.97,4.76,0,0,3.17-2.34,5.83-5.63.32-.39.63-.8.93-1.22.5-.71,1.16-1.56,1.97-2.51,1.7-2.02,4.06-4.53,7.05-7.3-.99.82-2.02,1.72-3.29,2.83-.38.37-.77.75-1.16,1.13-2.86,2.81-6.03,6.1-8.75,8.97,0,0,0,0,0,0-1.8,1.9-3.65,3.28-5.33,4.29-3.43,2.06-6.14,2.55-6.14,2.55,2.76.29,4.77.41,6.3.38.28,0,.55-.02.8-.03.99-.06,1.75-.21,2.37-.43,1.6-.55,2.34-1.57,3.89-2.93Z"/>
        <path class="cls-9" d="M46.95,86.23c.19-.7.26-1.13.26-1.13,0,0-.11.47-.26,1.13Z"/>
        <path class="cls-9" d="M51.86,79.08s.52-2.16,1.16-4.72c-2.79,1.95-5.91,6.47-5.91,6.47,0,0,.88-3.28,3.81-5.85-5.35,1.1-8.55,5.21-8.55,5.21,0,0,1.42-3.78,5.69-6.17-8.24,2.94-12.31,10.02-12.31,10.02,0,0,2.33-5.4,5.44-7.53-4.49,2.43-6.57,3.86-8.74,5.66-2.99,2.78-5.35,5.28-7.05,7.3-.33.43-.65.86-.98,1.31,0,0,4.84-5.69,9.72-7.96-3.73,4.29-5.03,9.84-5.03,9.84,0,0,4.33-6.03,8.08-8.45-1.54,1.9-3.64,6.79-3.79,9.9,1.64-1.69,3.41-8.56,10.17-13.13-2.23,3.18-3.18,5.87-3.82,10.62,1.55-4.19,4.96-10.47,7.44-12.53-2.37,4.76-3.46,7.32-3.63,11.05,0,0,4.54-8.3,6.99-11.72-.87,3.78-1.45,6.08-1.79,7.39-.13.31-.25.6-.36.82.43-1.85.61-4.13.61-4.13,0,0-1.88,6.77-2.96,7.75.17-.81.62-2.75.91-4-.24.89-.66,2.21-1.35,3.61-.09.18-.19.37-.29.56-.11.3-.24.6-.39.89.02-.03.03-.06.03-.06l.24.77s3.52-2.81,4.71-5.91c0,0-.16.55.45.75,1.36-.68,5.16-8.06,4.52-14.2-.01-.11-.01-.23-.03-.34.26,4.03-2.98,6.78-2.98,6.78Z"/>
        <path class="cls-7" d="M10.25,100.18c5.24-.9,9.31-7.98,9.31-7.98,0,0-3.09,1.62-3.96,2.51.69-1.53,3.74-4.5,3.74-4.5,0,0-2.34,1.14-2.57,1.54,1.01-1.61,3.17-3.28,3.17-3.28,0,0-2.23,1.14-2.12.94,1.58-2.63,4.08-5.11,6.96-6.74-2.43.92-5.22,2.87-5.34,3.07.47-1.12,4.17-4.69,4.17-4.69,0,0-2.24,1.32-2.99,2.23,1.22-2.01,4.1-5.35,5.44-7.03-.28.14-.58.33-.89.55.18-.1.35-.2.53-.29-2.64,1.75-3.86,4.11-4.75,5.25-.9,1.48-1.78,2.48-1.78,2.48,0,0,1.15-.85,1.71-1.03-1.37,1.25-3.44,3.16-3.44,3.16l1.04.05s-1.14,2.23-1.6,3.14c-.46.91-2.46,3.62-2.46,3.62,0,0-.02.52,1.36-.25,0,.05-.03.12-.06.21-.4,1.03-2.86,4.54-2.86,4.54,0,0,.4.33,1.05-.26-.12.23-.28.45-.46.66-1.15,1.32-3.2,2.08-3.2,2.08Z"/>
        <path class="cls-3" d="M20.88,83.23c-.56.18-1.71,1.03-1.71,1.03,0,0,.88-1,1.78-2.48.88-1.14,2.1-3.5,4.75-5.25-.18.09-.36.19-.53.29-.97.53-1.83,1.17-2.61,1.88-3.52,3.23-5.11,7.68-5.11,7.68,0,0,2.06-1.91,3.44-3.16Z"/>
        <path class="cls-3" d="M32.73,98.14c2.17-2.04,2.44-3.28,2.44-3.28,0,0-2.45,3.55-6.47,5.1,0-.14,2.3-1.76,2.08-1.63-.21.13-4.49,2.7-6.24,3.03,1.56-.69,3.22-2.27,3.22-2.27,0,0-3.2,1.72-3.83,1.97.28-.25.58-.58.87-.92.02-.02.04-.05.06-.07.53-.62,1-1.24,1.18-1.49.05-.07.09-.12.09-.12,0,0-.67.46-1.62,1.04-1.28.78-3.08,1.77-4.49,2.14-1.97.52-2.86.95-3.02,1.03,3.73-.57,5.42-1.19,6.07-1.5.04-.02.08-.04.12-.06.18-.09.25-.14.25-.14,0,0-.69.82-.75,1.31,0,.01,0,.03,0,.04,0,0,.02,0,.03,0,.09.02.23.01.41,0,1.72-.19,7.19-2.09,9.32-3.93.09-.08.19-.16.27-.24Z"/>
        <path class="cls-3" d="M17.02,102.66s0,0,0,0c-.04.03-.03.02,0,0Z"/>
        <path class="cls-8" d="M42.7,74.86s-.08.03-.11.05c-3.98,1.89-8.69,5.06-13.77,10.35.11-.1.21-.18.32-.28,1.28-1.11,2.3-2.01,3.29-2.83,2.18-1.8,4.25-3.23,8.74-5.66-3.11,2.14-5.44,7.53-5.44,7.53,0,0,4.07-7.08,12.31-10.02-4.27,2.4-5.69,6.17-5.69,6.17,0,0,3.2-4.11,8.55-5.21-2.92,2.56-3.81,5.85-3.81,5.85,0,0,3.12-4.53,5.91-6.47-.64,2.57-1.16,4.72-1.16,4.72,0,0,3.25-2.76,2.98-6.78,0,0-.04,0-.11-.02-.75-.11-5.34-.56-12.02,2.59Z"/>
        <path class="cls-11" d="M39.12,58.25c.68.35,1.39.71,2.13,1.08-.73-.38-1.42-.75-2.08-1.09-.02,0-.03,0-.05.01Z"/>
        <path class="cls-11" d="M70.48,73.12c.17-.42.35-.84.53-1.25-5.01-3.59-9.33-9.92-11.59-13.61.06.8.27,1.41.27,1.41,0,0-.03-.02-.08-.04,2.31,3.91,6.03,9.27,10.47,12.34-.65-.27-1.34-.57-2.08-.9-7.88-3.49-20.61-9.88-28.58-13.93,0,.19,0,.39-.02.58,8.7,4.57,23.62,12.29,31.1,15.41Z"/>
        <path class="cls-1" d="M19.6,29.03c-.09,0-.17-.02-.26-.02.09.02.18.03.27.05,0,0,0-.02-.01-.02Z"/>
        <path class="cls-1" d="M28.43,59.01c-.79,0-1.68-.04-2.61-.09-.22-.01-.44-.03-.66-.05,2.95.48,6.33.52,10.2.01-1.98.24-4.48.38-6.93.13Z"/>
        <path class="cls-9" d="M8.87,49.06s-.04-.07-.06-.1c.02.03.04.06.06.1Z"/>
        <path class="cls-9" d="M11.71,51.9c-.41-.25-.81-.57-1.19-.89.4.37.81.68,1.19.89Z"/>
        <path class="cls-9" d="M8.54,48.3c.03.18.13.4.27.65-.14-.26-.24-.5-.28-.7,0,.02,0,.03,0,.05Z"/>
        <path class="cls-9" d="M8.55,47.92s0,0,0-.01c0,0,0,0,0,.01Z"/>
        <path class="cls-9" d="M8.53,48.19s0-.09,0-.13c0,.04,0,.08,0,.13Z"/>
        <path class="cls-9" d="M28.43,59.01c-1.29-.13-2.56-.37-3.74-.77-2.55-.36-5.12-1.08-7.33-2.36,2.2.42,4.23-.07,4.23-.07,0,0-6.14-1.35-8.41-3.4,2.35,1.22,3.68,1.44,3.68,1.44,0,0-4.58-2.09-6.94-5.03-.65-.43-.91-.73-.91-.73,0,0,1.08,2.63,4.04,4.32-.27,0-.59-.1-.92-.26-.77.4.26,1.02,1.69,1.91,1.46.91,1.59.95,1.59.95l-.9.22s3.22,2.12,4.76,2.19c-.11.57,3.11,1.22,5.86,1.46.22.02.45.04.66.05.93.06,1.82.09,2.61.09Z"/>
        <path class="cls-9" d="M6.92,40.17c-.4-.22-.72-.39-.98-.53,1.6,1.59,3.38,2.03,3.38,2.03,0,0-5.49-5.47-7.01-9.91,0,0,.11.14.33.39-.74-1.09-1.35-2.08-1.81-2.92-.36-.66-.65-1.24-.83-1.7,0,0,.16,2.15,2.68,6.87.14,1.39,3.17,5.07,4.24,5.76Z"/>
        <path class="cls-9" d="M7.34,43.48c-1.02-.83-1.02-.84-1.02-.84.65,1.09,1.75,3.3,2.31,3.58-.41-.19-.73-.43-1-.67.42.7,1.01,1.57,1.8,2.47,1.09.86,2.29.87,2.29.87,0,0-2.84-2.35-4.37-5.42Z"/>
        <path class="cls-9" d="M10.49,45.47s-3.39-3.75-4.9-6.02c-.69-.38-.69-.38-.69-.38,0,0,.03.75.62,1.77.82,1.41,2.38,2.69,3.51,4.01-.68-.55-1.18-.97-1.56-1.28,1.62,1.93,3.03,1.89,3.03,1.89Z"/>
        <path class="cls-7" d="M13.14,28.56s.03-.02.04-.02c-.02,0-.03.02-.04.02Z"/>
        <path class="cls-7" d="M6.66,29.79c-.45.06-.95.05-1.46,0,.62.09,1.17.12,1.46,0Z"/>
        <path class="cls-7" d="M23.63,29.7s.02-.16.12-.25c-.09.04-.14.12-.12.25Z"/>
        <path class="cls-7" d="M32.49,35.76c-1.14-1.71-2.64-3.14-3.2-3.45.07.22.51,1.14.51,1.14,0,0-1.42-1.3-2.82-2.19.08.13.68.99.68.99,0,0-1.99-1.67-3.43-2.14.6.39,1.28,1.33,1.28,1.33,0,0-1.5-.62-3-1.23.85.43,1.19.71,1.19.71,0,0-1.8-.61-3.95-1.17,1.71,1.15,3.59,3.09,4.81,5.34,0,0-3.51-3.49-5.97-5.04,1.91,1.34,5.59,6.41,6.13,10.67-2.43-6.5-6.03-9.34-8.34-10.55-1.21-.35-2.57-.66-3.72-.67.19.05,2.02.87,2.02.87,0,0-3.62-.93-4.3-.8,2.34.72,3.91,2.99,3.91,2.99,0,0-3.05-2.18-5.08-2.6.95.36,2.36,1.78,2.36,1.78,0,0-2.93-1.49-4.17-1.53.61.42,1.18.99,1.18.99,0,0,4.36,1.91,7.31,7.03-.15-3.39-1.16-4.38-1.34-4.71,1.91,1.42,2.6,2.59,2.6,2.59,0,0-.56-3.67-1.43-4.57,3.45,2.08,6.72,10.73,7.65,13.86-1.17-3.79-2.9-9.99-2.9-9.99,0,0,5.03,5.97,6.7,13.8,1.1-3.65-3.41-13.7-3.41-13.7,0,0,2.9,2.97,3.29,4.43-.59-3.19-1.54-4.55-1.54-4.55,0,0,2.5,1.43,3.9,3.88-.55-2.96-1.87-4.37-1.87-4.37,0,0,2.58.59,4.21,3l-.17-2.21s2.92,3.71,3.34,5.99c.33-.77.26-1.82.26-1.82,0,0,2.95,4.77,3.93,11.85-.52-5.07-1.63-9.51-2.22-9.57-.24-1.96-1.25-4.25-1.83-3.55-.41-1.58-2.09-4.33-2.5-3.31-.37-.73-1.91-2.52-2.93-3.19.69.54,1.9,1.81,2.87,3.67Z"/>
        <path class="cls-7" d="M13.09,28.6s.01-.01.02-.02c0,0-.01.01-.02.02Z"/>
        <path class="cls-7" d="M9.53,29.25c-.09.07-.09.18.05.36-.07-.15-.09-.27-.05-.36Z"/>
        <path class="cls-7" d="M19.55,28.76c-.04.06-.03.15.05.27,0,0,0,.02.01.02,0,0-.05-.14-.07-.29Z"/>
        <path class="cls-7" d="M7.6,35.51c-2.32-2.99-2.72-3.86-2.72-3.86,0,0,5.05,3.08,6.1,4.3-1.85-3.67-2.41-4.74-2.41-4.74,0,0-3.01-.83-4.42-1.28-1.36-.19,2.6,1.64,3.65,2.51-3.73-1.74-5.79-2.18-7.16-3.91.78,1.19,1.62,2.36,2.51,3.49,1.29.94,3.74,2.5,4.45,3.5Z"/>
        <path class="cls-8" d="M20.52,54.4c-.18.05-.29.06-.25,0,.09,0,.16,0,.25,0,.63-.17,2.2-.81,2.2-.81,0,0-3.92.49-5.97-.43-.3-.14,3.63.37,6.93-.26-2.9.13-7.13-.06-10.03-1.88,3.17,1.19,5.87,1.16,6.9.97-4.85-.76-8.82-3.09-8.82-3.09,0,0-1.2,0-2.29-.87.35.4.74.8,1.18,1.2-.26-.15-.48-.29-.68-.41,2.36,2.94,6.94,5.03,6.94,5.03,0,0-1.34-.23-3.68-1.44,2.27,2.06,8.41,3.4,8.41,3.4,0,0-2.03.49-4.23.07,2.2,1.29,4.78,2,7.33,2.36-.32-.11-.64-.22-.94-.36,2.22.69,6.52.48,7.61.44-.94-.04-4.03-.43-4.7-.62,2.06.33,4.92-.2,5.95-.98-3.68,1.15-9.42.08-9.42.08,0,0,4.88.28,7.36-1-4.85.54-5.6.32-5.6.32,0,0,3.48-.32,4.58-1.11-1.19.06-4.03.06-5.4-.16,1.31.21,3.53-.23,4.73-.6-.44-.23-.9-.47-1.37-.72-.86.33-2.99.92-6.98.86Z"/>
        <path class="cls-8" d="M11.71,48.9s5.43,1.95,7.81,2.1c-5.39-1.72-7.99-3.72-7.99-3.72,0,0,6.12,2.53,8.94,2.48-4.46-1.18-7.81-3.99-7.81-3.99,0,0,3.98,1.68,5.96,2.05-.05-.04-.1-.08-.16-.11-3.15-1.74-5.45-3.89-5.45-3.89,0,0,1.19.77,2.63,1.68-.89-.72-1.79-1.49-2.7-2.29-2.25-1.83-4.03-3.75-5.48-5.38-1.66-1.74-3.01-3.35-3.96-4.68-.37-.42-.66-.76-.87-1-.21-.25-.33-.39-.33-.39,1.52,4.44,7.01,9.91,7.01,9.91,0,0-1.78-.44-3.38-2.03-.14-.07-.26-.14-.36-.19,1.51,2.27,4.9,6.02,4.9,6.02,0,0-1.41.04-3.03-1.89-.04-.04-.08-.07-.12-.1,1.54,3.08,4.37,5.42,4.37,5.42Z"/>
        <path class="cls-14" d="M39.36,58.19c-.22-.05-.43-.12-.65-.18-1.37-.29-4.89-1.22-9.84-3.75-1.2.37-3.43.81-4.73.6,1.37.22,4.21.22,5.4.16-1.1.79-4.58,1.11-4.58,1.11,0,0,.75.22,5.6-.32-2.48,1.28-7.36,1-7.36,1,0,0,5.74,1.07,9.42-.08-1.04.78-3.89,1.3-5.95.98.66.19,3.75.58,4.7.62-1.09.04-5.39.25-7.61-.44.31.13.62.25.94.36,1.18.4,2.46.64,3.74.77,2.45.25,4.94.1,6.93-.13,1.83-.22,3.22-.51,3.76-.63.02,0,.03,0,.05-.01.12-.03.19-.04.19-.04Z"/>
        <path class="cls-14" d="M18.47,47.71c-.92-.69-1.86-1.42-2.82-2.21-1.44-.91-2.63-1.68-2.63-1.68,0,0,2.31,2.15,5.45,3.89Z"/>
        <path class="cls-14" d="M12.67,45.77s3.35,2.8,7.81,3.99c-2.82.05-8.94-2.48-8.94-2.48,0,0,2.61,2,7.99,3.72-2.39-.15-7.81-2.1-7.81-2.1,0,0,3.97,2.33,8.82,3.09-1.03.19-3.73.22-6.9-.97,2.9,1.82,7.13,2.01,10.03,1.88-3.3.64-7.23.13-6.93.26,2.06.92,5.97.43,5.97.43,0,0-1.57.64-2.2.81,3.99.07,6.12-.53,6.98-.86-2.64-1.43-5.62-3.29-8.87-5.71-1.98-.38-5.96-2.05-5.96-2.05Z"/>
        <path class="cls-14" d="M20.52,54.4c-.08,0-.16,0-.25,0-.04.06.06.05.25,0Z"/>
        <path class="cls-13" d="M35.16,39.87s.07,1.05-.26,1.82c-.42-2.28-3.34-5.99-3.34-5.99l.17,2.21c-1.62-2.41-4.21-3-4.21-3,0,0,1.32,1.41,1.87,4.37-1.39-2.45-3.9-3.88-3.9-3.88,0,0,.96,1.36,1.54,4.55-.39-1.46-3.29-4.43-3.29-4.43,0,0,4.5,10.05,3.41,13.7-1.66-7.83-6.7-13.8-6.7-13.8,0,0,1.73,6.19,2.9,9.99-.93-3.13-4.2-11.78-7.65-13.86.87.9,1.43,4.57,1.43,4.57,0,0-.69-1.17-2.6-2.59.18.32,1.19,1.31,1.34,4.71-2.95-5.12-7.31-7.03-7.31-7.03,0,0,.55,1.08,2.41,4.74-1.05-1.22-6.1-4.3-6.1-4.3,0,0,.4.87,2.72,3.86-.7-1-3.16-2.55-4.45-3.5-.47-.34-.79-.6-.81-.72.27.53.66,1.16,1.16,1.86.95,1.33,2.3,2.93,3.96,4.68-.46-.52-.9-1.02-1.3-1.47,3.37,2.92,7.01,5.08,7.52,5.33-2.13-3.26-5.1-7.2-5.1-7.2,0,0,5.73,6.14,7.41,8.89-1.72-4.06-2.92-6.61-3.18-7.13-.01-.02-.03-.05-.03-.06-.03-.08-.02-.05.03.06.4.71,4.71,7.02,5.76,9.01.61-.61.33-5.73-.94-9.26,1.82,4.13,2.7,7.28,3.23,10.84.18-4.16-.88-7.97-.88-7.97,0,0,2.61,6.48,3.52,9.49.74-1.08-.19-4.3-.19-4.3,0,0,2.21,3.84,3.39,7.6,1.92-.4,2.08-6.63-.28-11.15,1.51,1.14,3.5,7.49,3.5,7.49,0,0,.13-5.68-2.69-10.12,3.3,4.46,4.55,10.01,4.75,13.63.83-5.1-.93-10.79-1.48-11.87,2.09,3.03,2.74,6.57,2.74,6.57,0,0-.03-4-1.46-7.28,2.19,2.31,3.11,9.21,3.11,9.21,0,0,.27-4.29-.41-6.06,1.3,1.29,1.71,5.46,1.71,5.46,0,0,.33-2.06.15-3.68,0,0,3.43,7.09,2.98,14.25,0,0-.23-.03-.64-.12.22.06.43.12.65.18.01-.16,0-.32.02-.48,0-.2.01-.39.02-.58.05-1.92-.06-3.73-.3-5.41-.99-7.08-3.93-11.85-3.93-11.85Z"/>
        <path class="cls-6" d="M12.79,36.2s.02.04.03.06c-.05-.11-.07-.14-.03-.06Z"/>
        <path class="cls-9" d="M39.35,58.13s-.1-.37-1.15-.79c-10.3-2.61-18.48-9.12-25.44-14.3.06.06.13.11.19.16.92.81,1.82,1.57,2.7,2.29.96.78,1.9,1.52,2.82,2.21.05.04.1.08.16.11,3.25,2.42,6.23,4.29,8.87,5.71.46.25.92.5,1.37.72,4.96,2.53,8.47,3.45,9.84,3.75.42.09.64.12.64.12Z"/>
        <path class="cls-3" d="M7.8,32.44c-1.04-.87-5.01-2.7-3.65-2.51,1.41.45,4.42,1.28,4.42,1.28,0,0-.58-.57-1.18-.99,1.24.04,4.17,1.53,4.17,1.53,0,0-1.41-1.42-2.36-1.78,2.02.42,5.08,2.6,5.08,2.6,0,0-1.57-2.28-3.91-2.99.68-.13,4.3.8,4.3.8,0,0-1.83-.81-2.02-.87,1.14.01,2.51.32,3.72.67,2.31,1.21,5.91,4.05,8.34,10.55-.54-4.27-4.21-9.33-6.13-10.67,2.47,1.56,5.97,5.04,5.97,5.04-1.22-2.25-3.1-4.19-4.81-5.34,2.16.56,3.95,1.17,3.95,1.17,0,0-.34-.28-1.19-.71,1.5.61,3,1.23,3,1.23,0,0-.67-.94-1.28-1.33,1.44.47,3.43,2.14,3.43,2.14,0,0-.6-.86-.68-.99,1.4.89,2.82,2.19,2.82,2.19,0,0-.43-.92-.51-1.14.56.31,2.06,1.74,3.2,3.45-.97-1.86-2.18-3.13-2.87-3.67-.25-.19-.43-.3-.51-.3-.3,0-.4.22-.4.22l-.24-.19c-3.42-2.62-4.42-2.61-4.71-2.36-.1.09-.12.2-.12.25,0,.01,0,.03,0,.03,0,0-2.79-1.37-3.76-1.37-.29,0-.34.22-.32.4.01.15.07.29.07.29-.09-.02-.18-.03-.27-.05-.61-.11-1.17-.19-1.67-.27-.14-.04-.27-.06-.4-.08-.16-.02-.31-.03-.46-.04-2.36-.31-3.31-.25-3.63-.08-.01,0-.03.02-.04.02-.01,0-.02.02-.03.02,0,0-.01.01-.02.02-.21.22.3.54.3.54-2.74-.17-3.71-.22-3.85.11-.04.09-.02.21.05.36-3.44-.9-3.72-.52-2.91.18-.29.11-.83.09-1.46,0-.59-.09-1.24-.24-1.82-.4-.28-.08-.56-.16-.79-.23-.35-.11-.7-.29-1.04-.49-.85-.5-1.56-1.12-1.56-1.12.2.37.41.7.64.99,1.37,1.73,3.43,2.18,7.16,3.91Z"/>
        <path class="cls-13" d="M13.07,52.4c-2.96-1.69-4.04-4.32-4.04-4.32,0,0,.26.3.91.73.19.13.41.27.68.41-.43-.4-.82-.8-1.18-1.2-.79-.9-1.39-1.77-1.8-2.47.27.24.59.48,1,.67-.56-.28-1.66-2.49-2.31-3.58,0,0,0,0,1.02.84.04.03.08.06.12.1.38.31.89.73,1.56,1.28-1.13-1.32-2.69-2.6-3.51-4.01-.59-1.02-.62-1.77-.62-1.77,0,0,0,0,.69.38.1.06.22.12.36.19.26.14.58.31.98.53-1.07-.69-4.11-4.37-4.24-5.76-.97.18.46,2.8,1.73,4.28-.17.13-.23.36-.21.64.08,1.46,2.33,4.45,2.33,4.45-.88.6,1.25,3.18,2.35,4-.17-.02-.26.04-.32.13,0,0,0,0,0,.01-.02.04-.03.09-.03.14,0,.04,0,.08,0,.13,0,.02,0,.04,0,.06.04.2.14.44.28.7h0s.04.07.06.1c.21.37.48.75.75,1.06.24.27.56.59.91.9.37.32.78.64,1.19.89.15.09.29.17.43.23.33.16.65.26.92.26Z"/>
        <path class="cls-4" d="M90.01,73.39c.09.08.16.15.25.23-.09-.11-.18-.2-.25-.23Z"/>
      </g>
    </g>
  </g>
</svg>